<svg xmlns="http://www.w3.org/2000/svg" width="100" height="100" viewBox="0 0 100 100"><path d="M50 13.3c-24 0-43.4 19.3-43.4 43.1 0 8.1 2.2 15.6 6.1 22.1 -0.2-0.7-0.3-1.5-0.3-2.2 -0.2-5 2.7-8.6 4.1-10.3 1.4-1.6 5-7.4 5.7-12.1 0.7-4.7-3.2-3.6-5.1-2.8 -1.9 0.8-2.6-0.9-2.2-1.5 0.9-1.2-0.3 0-1.6-1.7 -0.8-1.1-1.2-3.1 0.6-2.8 1.8 0.3 3.6-1.2 5.6-4.4 1.9-3.3 2.7 0.5 2.6-2.9 0-3.4 2.4 0.7 2.7 2 0.3 1.3 1.2 1.9 1.2 3.2 0.1 1.7 1.1 1.7 1.8 2.5 0.7 0.7 1 2.6 0.4 3.9 -0.6 1.3-0.3 1.2-0.1 4.4 0.4 5-3.4 13.6 0.1 17.1 1.7 1.8 3.9 2.5 5.5 2.8 0.2-2.2 2.1-3.9 4.3-3.9 2.3 0 4.2 1.8 4.3 4.1l1.7 0c0.1-2.2 1.9-4 4.2-4.1l0-1.4 -16.7 0 0-39.7 -2.2 0 0-1.8 18.5 0 0-2.4 -0.7 0 0 0 -0.1 0 -0.4-1.6 0-1.6 1.4 0 1.9-6.4 1.9 6.4 1.4 0 0 1.6 -0.4 1.6 -0.1 0 0 0 -0.7 0 0 2.4 18.5 0 0 1.8 -2.2 0 0 39.7 -16.7 0 0 1.4c2.2 0.1 4 1.9 4.2 4.1l1.7 0c0.1-2.3 2-4.1 4.3-4.1 2.2 0 4.1 1.7 4.3 3.9 1.6-0.3 3.8-1.1 5.5-2.8 3.6-3.6-0.3-12.1 0.1-17.1 0.2-3.2 0.6-3.1-0.1-4.4 -0.6-1.3-0.4-3.2 0.4-3.9 0.7-0.7 1.8-0.7 1.8-2.5 0-1.3 0.9-1.9 1.2-3.2 0.3-1.3 2.8-5.4 2.7-2 0 3.4 0.7-0.4 2.6 2.9 1.9 3.3 3.8 4.7 5.6 4.4 1.8-0.3 1.4 1.6 0.6 2.8 -1.3 1.7-2.5 0.5-1.6 1.7 0.4 0.6-0.2 2.3-2.2 1.5 -1.9-0.8-5.8-1.9-5.1 2.8 0.7 4.7 4.3 10.5 5.7 12.1 1.4 1.6 4.3 5.2 4.1 10.3 0 0.7-0.1 1.5-0.3 2.2 3.9-6.5 6.1-14 6.1-22.1 0-23.8-19.4-43.1-43.4-43.1l0 0Zm2 54.2l0-38.7 -2 0 -2 0 0 38.7 4.1 0Zm7.2-38.7l-4.3 0 0 38.7 4.3 0 0-38.7Zm7.2 0l-4.3 0 0 38.7 4.3 0 0-38.7Zm-21.4 38.7l0-38.7 -4.3 0 0 38.7 4.3 0Zm-7.2 0l0-38.7 -4.3 0 0 38.7 4.3 0Zm-24.8 17.7l1.8 0c-6.5-7.8-10.5-17.9-10.5-28.8 0-25 20.4-45.2 45.6-45.2l0 0c25.1 0 45.5 20.3 45.5 45.2 0 11-3.9 21-10.5 28.8l1.8 0 0 3.3 -73.9 0 0-3.3Z"/></svg>
