<svg xmlns="http://www.w3.org/2000/svg" width="100" height="100" viewBox="0 0 100 100"><path d="M92.9 95.3l-85.7 0 0-26.7 4.6-7 3.6 5.5 4.8-7.8 5.1 8.2 4.1 0 0-23.1 -1.5-1.5 0-15.1 4.4 0 5.9-23.3 5.9 23.3 3.6 0 0 5.9 4.5 0 0-5.9 3.6 0 5.9-23.3 5.9 23.3 4.4 0 0 15.2 -1.5 1.5 0 23.1 4.1 0 5.1-8.2 4.8 7.8 3.6-5.5 4.6 7 0 26.7Zm-31.6-3.4l0-25.7 0 0c0-0.2-4-0.5-5.4-1.3 -0.7-0.4-1.8-0.6-2.8-0.6l0-1.6 -6 0 0 1.6c-1 0-2.2 0.2-2.8 0.6 -1.4 0.9-5.4 1.1-5.4 1.3l0 0 0 25.7 22.4 0Zm22.3-15.6l-7.1 0 0 7.1 7.1 0 0-7.1Zm-60 7.1l0-7.1 -7.1 0 0 7.1 7.1 0Zm40.3-32.3l0-19.7c0-2.2-0.8-4-1.9-4 -1 0-1.9 1.8-1.9 4l0 19.7 3.8 0Zm-23.9 0l0-19.7c0-2.2-0.8-4-1.9-4 -1 0-1.9 1.8-1.9 4l0 19.7 3.8 0Z"/></svg>
